<svg width="16" height="16" viewBox="0 0 16 16" fill="none" xmlns="http://www.w3.org/2000/svg">
<g clip-path="url(#clip0)">
<path d="M10.2067 5.7959C9.99977 5.7959 9.83203 5.96364 9.83203 6.17061V13.2526C9.83203 13.4594 9.99977 13.6273 10.2067 13.6273C10.4137 13.6273 10.5814 13.4594 10.5814 13.2526V6.17061C10.5814 5.96364 10.4137 5.7959 10.2067 5.7959Z" fill="#86A4BA"/>
<path d="M5.78584 5.7959C5.57887 5.7959 5.41113 5.96364 5.41113 6.17061V13.2526C5.41113 13.4594 5.57887 13.6273 5.78584 13.6273C5.99281 13.6273 6.16055 13.4594 6.16055 13.2526V6.17061C6.16055 5.96364 5.99281 5.7959 5.78584 5.7959Z" fill="#86A4BA"/>
<path d="M2.56325 4.76335V13.9953C2.56325 14.541 2.76334 15.0534 3.11287 15.4211C3.46079 15.7898 3.94498 15.9991 4.45171 16H11.5413C12.0481 15.9991 12.5323 15.7898 12.8801 15.4211C13.2296 15.0534 13.4297 14.541 13.4297 13.9953V4.76335C14.1245 4.57893 14.5748 3.90768 14.4818 3.19471C14.3887 2.48189 13.7815 1.94867 13.0625 1.94852H11.144V1.48014C11.1462 1.08626 10.9905 0.708039 10.7116 0.42979C10.4328 0.151688 10.054 -0.0031709 9.66012 4.92333e-05H6.33285C5.93897 -0.0031709 5.56017 0.151688 5.28133 0.42979C5.0025 0.708039 4.84676 1.08626 4.84896 1.48014V1.94852H2.93049C2.21152 1.94867 1.60424 2.48189 1.51115 3.19471C1.4182 3.90768 1.86843 4.57893 2.56325 4.76335ZM11.5413 15.2506H4.45171C3.81105 15.2506 3.31266 14.7002 3.31266 13.9953V4.79629H12.6803V13.9953C12.6803 14.7002 12.1819 15.2506 11.5413 15.2506ZM5.59837 1.48014C5.59588 1.28503 5.67258 1.09724 5.81104 0.959502C5.94936 0.821768 6.13759 0.746095 6.33285 0.749461H9.66012C9.85538 0.746095 10.0436 0.821768 10.1819 0.959502C10.3204 1.09709 10.3971 1.28503 10.3946 1.48014V1.94852H5.59837V1.48014ZM2.93049 2.69793H13.0625C13.435 2.69793 13.737 2.99989 13.737 3.3724C13.737 3.74492 13.435 4.04688 13.0625 4.04688H2.93049C2.55798 4.04688 2.25602 3.74492 2.25602 3.3724C2.25602 2.99989 2.55798 2.69793 2.93049 2.69793Z" fill="#86A4BA"/>
<path d="M7.99579 5.7959C7.78883 5.7959 7.62109 5.96364 7.62109 6.17061V13.2526C7.62109 13.4594 7.78883 13.6273 7.99579 13.6273C8.20276 13.6273 8.37049 13.4594 8.37049 13.2526V6.17061C8.37049 5.96364 8.20276 5.7959 7.99579 5.7959Z" fill="#86A4BA"/>
</g>
<defs>
<clipPath id="clip0">
<rect width="16" height="16" fill="white"/>
</clipPath>
</defs>
</svg>
