<svg width="16" height="16" viewBox="0 0 16 16" fill="none" xmlns="http://www.w3.org/2000/svg">
<mask id="path-1-outside-1" maskUnits="userSpaceOnUse" x="-1" y="-0.999512" width="18" height="18" fill="black">
<rect fill="white" x="-1" y="-0.999512" width="18" height="18"/>
<path d="M7.99075 0.000488281C7.70395 0.000488281 7.41736 0.015906 7.13219 0.0466415C6.87083 0.0733389 6.61266 0.117123 6.35797 0.170251C6.30868 0.180562 6.25936 0.191442 6.21007 0.202821C4.70944 0.544482 3.33919 1.31173 2.26365 2.41257C2.16364 2.51509 2.06572 2.62064 1.96998 2.7292C-0.935366 6.06464 -0.586698 11.1238 2.74878 14.0292C5.94206 16.8107 10.7488 16.6256 13.7187 13.6068C13.8189 13.5043 13.9168 13.3987 14.0124 13.2902C15.2946 11.83 16.0011 9.95289 16 8.00968C16 3.58629 12.4141 0.00045491 7.99075 0.000488281ZM2.61953 2.81303C2.66171 2.76924 2.7055 2.72733 2.74848 2.68488C2.79814 2.63602 2.84753 2.5869 2.89825 2.53965C2.94284 2.498 2.98875 2.45795 3.03441 2.41737C3.08593 2.37172 3.13719 2.32607 3.19005 2.28202C3.23651 2.24277 3.2843 2.20513 3.33182 2.16722C3.38521 2.1245 3.43861 2.08179 3.4936 2.04067C3.54219 2.0041 3.59158 1.96859 3.64124 1.93388C3.6965 1.89437 3.75203 1.85379 3.80837 1.81695C3.85882 1.78277 3.90982 1.74967 3.96108 1.71683C4.01821 1.68026 4.07561 1.64422 4.13354 1.61004C4.1857 1.57891 4.23819 1.54827 4.29106 1.5182C4.35016 1.48456 4.40949 1.45173 4.46913 1.41969C4.52252 1.39122 4.57592 1.36336 4.62931 1.33613C4.69018 1.30542 4.75159 1.27579 4.81326 1.24669C4.86665 1.22133 4.92218 1.19597 4.97718 1.17194C5.03992 1.14524 5.10346 1.11854 5.167 1.09185C5.22226 1.06915 5.27726 1.04699 5.33306 1.02564C5.39766 1.00107 5.46307 0.978115 5.52848 0.955155C5.58428 0.935666 5.64008 0.916177 5.69667 0.897755C5.76315 0.876397 5.83016 0.856641 5.89744 0.837152C5.95377 0.820867 6.00957 0.804047 6.06617 0.78883C6.08779 0.783223 6.10942 0.778685 6.13104 0.773078C5.3408 1.5404 4.75436 2.49269 4.42481 3.54374C3.79115 3.37661 3.17771 3.14054 2.5955 2.83973C2.60431 2.83038 2.61179 2.82104 2.61953 2.81303ZM2.23562 3.24286C2.87693 3.59032 3.55698 3.86097 4.26169 4.04912C3.91622 5.25037 3.73488 6.49283 3.72267 7.74271H0.521646C0.579813 6.09451 1.18254 4.51209 2.23562 3.24286ZM2.23562 12.7765C1.18261 11.5072 0.57988 9.92482 0.521646 8.27666H3.72267C3.73488 9.52653 3.91619 10.769 4.26169 11.9702C3.55701 12.1585 2.87696 12.4291 2.23562 12.7765ZM6.06457 15.2316C6.01064 15.218 5.95484 15.2004 5.89931 15.1841C5.83176 15.1643 5.76395 15.1446 5.69721 15.1229C5.64088 15.1048 5.58535 15.0853 5.52982 15.0658C5.46414 15.0431 5.39846 15.0199 5.33359 14.9951C5.27806 14.974 5.22333 14.9518 5.16833 14.9294C5.10453 14.9027 5.04072 14.876 4.97745 14.8493C4.92298 14.8253 4.86879 14.8005 4.81486 14.7751C4.75265 14.7457 4.69072 14.7158 4.62798 14.6848C4.57458 14.6581 4.52119 14.6314 4.46779 14.6023C4.40746 14.57 4.34765 14.5369 4.28785 14.5028C4.23446 14.4731 4.18373 14.4427 4.13221 14.4117C4.07347 14.3765 4.0158 14.3402 3.95814 14.3031C3.90741 14.2708 3.85669 14.2379 3.80676 14.2043C3.7499 14.1658 3.69357 14.1258 3.63777 14.0857C3.58891 14.0508 3.54006 14.0158 3.492 13.979C3.43674 13.9373 3.38254 13.8943 3.32861 13.8511C3.28136 13.8134 3.23437 13.7761 3.18818 13.7373C3.13479 13.693 3.08326 13.6468 3.03147 13.6009C2.98609 13.5606 2.94043 13.5208 2.89611 13.4797C2.84512 13.4322 2.79573 13.3828 2.74608 13.3339C2.70309 13.2915 2.65931 13.2496 2.61713 13.2061C2.60938 13.1978 2.60191 13.1892 2.59417 13.1812C3.17634 12.8803 3.78978 12.6441 4.42347 12.477C4.75309 13.528 5.3395 14.4802 6.12971 15.2476C6.10808 15.242 6.08619 15.2375 6.06457 15.2316ZM7.72381 15.4639C6.58143 15.3015 5.58001 14.1092 4.94995 12.3485C5.86086 12.1446 6.79043 12.0352 7.72381 12.022V15.4639ZM7.72381 11.4881C6.73367 11.5011 5.7477 11.6187 4.78229 11.8389C4.44707 10.6807 4.27023 9.48235 4.25662 8.27666H7.72381V11.4881ZM7.72381 7.74271H4.25662C4.2702 6.53702 4.44703 5.33871 4.78229 4.18047C5.7477 4.40062 6.7337 4.51823 7.72381 4.53127V7.74271ZM7.72381 3.99733C6.7904 3.98431 5.86086 3.87489 4.94995 3.67082C5.58001 1.91012 6.58143 0.717815 7.72381 0.555494V3.99733ZM13.7459 3.24286C14.799 4.51212 15.4017 6.09454 15.4599 7.74271H12.2589C12.2467 6.49283 12.0654 5.25037 11.7199 4.04912C12.4246 3.86087 13.1046 3.59026 13.7459 3.24286ZM9.91487 0.787495C9.97093 0.801378 10.0267 0.818998 10.0823 0.835283C10.1498 0.855039 10.2176 0.874796 10.2844 0.89642C10.3407 0.914575 10.3962 0.934064 10.4518 0.953553C10.5174 0.976246 10.5831 0.999473 10.648 1.0243C10.7035 1.04539 10.7582 1.06755 10.8132 1.08998C10.877 1.11667 10.9409 1.14337 11.0041 1.17007C11.0586 1.1941 11.1128 1.21883 11.1667 1.24429C11.2289 1.27366 11.2909 1.30356 11.3536 1.33453C11.407 1.36122 11.4604 1.38792 11.5138 1.41702C11.5741 1.44932 11.6339 1.48243 11.6937 1.5166C11.7471 1.54624 11.7978 1.57667 11.8494 1.60764C11.9081 1.64288 11.9658 1.67919 12.0234 1.7163C12.0742 1.7486 12.1249 1.78144 12.1748 1.81508C12.2317 1.85352 12.2877 1.8933 12.3435 1.93335C12.3927 1.96832 12.4415 2.00356 12.4898 2.04014C12.5448 2.08152 12.5988 2.1245 12.653 2.16775C12.6999 2.20513 12.7472 2.2425 12.7934 2.28148C12.8468 2.3258 12.8983 2.37199 12.9501 2.41791C12.9955 2.45822 13.0411 2.498 13.0855 2.53911C13.1364 2.58663 13.1858 2.63602 13.2355 2.68488C13.2785 2.72733 13.3223 2.76924 13.3644 2.81276C13.3722 2.82104 13.3797 2.82958 13.3874 2.83759C12.8052 3.13854 12.1918 3.37471 11.5581 3.54187C11.2278 2.49072 10.6407 1.53853 9.84973 0.771477C9.87135 0.777083 9.89324 0.781622 9.91487 0.787495ZM8.25776 0.555494C9.40014 0.717815 10.4016 1.91012 11.0316 3.67082C10.1207 3.87478 9.19113 3.98421 8.25776 3.99733V0.555494ZM8.25776 4.53127C9.2479 4.51826 10.2339 4.40066 11.1993 4.18047C11.5345 5.33871 11.7113 6.53702 11.725 7.74271H8.25776V4.53127ZM8.25776 8.27666H11.725C11.7114 9.48235 11.5345 10.6807 11.1993 11.8389C10.2339 11.6187 9.2479 11.5011 8.25776 11.4881V8.27666ZM8.25776 15.4639V12.022C9.19117 12.0351 10.1207 12.1445 11.0316 12.3485C10.4016 14.1092 9.40014 15.3015 8.25776 15.4639ZM13.362 13.2063C13.3199 13.2499 13.2763 13.2918 13.2334 13.3342C13.1837 13.3831 13.134 13.4325 13.0831 13.48C13.0387 13.5214 12.9931 13.5601 12.9477 13.6015C12.8959 13.6474 12.8444 13.6933 12.7915 13.7376C12.7448 13.7766 12.6973 13.8142 12.6498 13.8521C12.5964 13.8949 12.543 13.9376 12.488 13.9787C12.4394 14.0153 12.39 14.0508 12.3403 14.0855C12.2851 14.125 12.2295 14.1656 12.1732 14.2024C12.1227 14.2366 12.0718 14.2697 12.0205 14.3023C11.9634 14.3391 11.9058 14.3747 11.8478 14.4091C11.7944 14.4403 11.7434 14.4707 11.6908 14.5009C11.6317 14.5345 11.5722 14.5674 11.5124 14.5994C11.459 14.6279 11.4057 14.6557 11.3523 14.683C11.2914 14.7137 11.23 14.7433 11.1683 14.7724C11.1149 14.7978 11.0594 14.8231 11.0044 14.8472C10.9417 14.8739 10.8781 14.9006 10.8146 14.9273C10.7593 14.9497 10.7043 14.9721 10.6488 14.9932C10.5836 15.018 10.5182 15.0412 10.4526 15.0639C10.397 15.0834 10.3415 15.1029 10.2852 15.1211C10.2184 15.1427 10.1517 15.1625 10.0836 15.1819C10.0278 15.1985 9.97173 15.215 9.9154 15.2303C9.89378 15.2359 9.87215 15.2404 9.85053 15.246C10.6408 14.4787 11.2272 13.5264 11.5568 12.4754C12.1904 12.6425 12.8039 12.8786 13.3861 13.1794C13.3773 13.189 13.3698 13.1983 13.362 13.2063ZM13.7459 12.7765C13.1046 12.429 12.4246 12.1584 11.7199 11.9702C12.0653 10.769 12.2467 9.52653 12.2589 8.27666H15.4599C15.4018 9.92482 14.799 11.5073 13.7459 12.7765Z"/>
</mask>
<path d="M7.99075 0.000488281C7.70395 0.000488281 7.41736 0.015906 7.13219 0.0466415C6.87083 0.0733389 6.61266 0.117123 6.35797 0.170251C6.30868 0.180562 6.25936 0.191442 6.21007 0.202821C4.70944 0.544482 3.33919 1.31173 2.26365 2.41257C2.16364 2.51509 2.06572 2.62064 1.96998 2.7292C-0.935366 6.06464 -0.586698 11.1238 2.74878 14.0292C5.94206 16.8107 10.7488 16.6256 13.7187 13.6068C13.8189 13.5043 13.9168 13.3987 14.0124 13.2902C15.2946 11.83 16.0011 9.95289 16 8.00968C16 3.58629 12.4141 0.00045491 7.99075 0.000488281ZM2.61953 2.81303C2.66171 2.76924 2.7055 2.72733 2.74848 2.68488C2.79814 2.63602 2.84753 2.5869 2.89825 2.53965C2.94284 2.498 2.98875 2.45795 3.03441 2.41737C3.08593 2.37172 3.13719 2.32607 3.19005 2.28202C3.23651 2.24277 3.2843 2.20513 3.33182 2.16722C3.38521 2.1245 3.43861 2.08179 3.4936 2.04067C3.54219 2.0041 3.59158 1.96859 3.64124 1.93388C3.6965 1.89437 3.75203 1.85379 3.80837 1.81695C3.85882 1.78277 3.90982 1.74967 3.96108 1.71683C4.01821 1.68026 4.07561 1.64422 4.13354 1.61004C4.1857 1.57891 4.23819 1.54827 4.29106 1.5182C4.35016 1.48456 4.40949 1.45173 4.46913 1.41969C4.52252 1.39122 4.57592 1.36336 4.62931 1.33613C4.69018 1.30542 4.75159 1.27579 4.81326 1.24669C4.86665 1.22133 4.92218 1.19597 4.97718 1.17194C5.03992 1.14524 5.10346 1.11854 5.167 1.09185C5.22226 1.06915 5.27726 1.04699 5.33306 1.02564C5.39766 1.00107 5.46307 0.978115 5.52848 0.955155C5.58428 0.935666 5.64008 0.916177 5.69667 0.897755C5.76315 0.876397 5.83016 0.856641 5.89744 0.837152C5.95377 0.820867 6.00957 0.804047 6.06617 0.78883C6.08779 0.783223 6.10942 0.778685 6.13104 0.773078C5.3408 1.5404 4.75436 2.49269 4.42481 3.54374C3.79115 3.37661 3.17771 3.14054 2.5955 2.83973C2.60431 2.83038 2.61179 2.82104 2.61953 2.81303ZM2.23562 3.24286C2.87693 3.59032 3.55698 3.86097 4.26169 4.04912C3.91622 5.25037 3.73488 6.49283 3.72267 7.74271H0.521646C0.579813 6.09451 1.18254 4.51209 2.23562 3.24286ZM2.23562 12.7765C1.18261 11.5072 0.57988 9.92482 0.521646 8.27666H3.72267C3.73488 9.52653 3.91619 10.769 4.26169 11.9702C3.55701 12.1585 2.87696 12.4291 2.23562 12.7765ZM6.06457 15.2316C6.01064 15.218 5.95484 15.2004 5.89931 15.1841C5.83176 15.1643 5.76395 15.1446 5.69721 15.1229C5.64088 15.1048 5.58535 15.0853 5.52982 15.0658C5.46414 15.0431 5.39846 15.0199 5.33359 14.9951C5.27806 14.974 5.22333 14.9518 5.16833 14.9294C5.10453 14.9027 5.04072 14.876 4.97745 14.8493C4.92298 14.8253 4.86879 14.8005 4.81486 14.7751C4.75265 14.7457 4.69072 14.7158 4.62798 14.6848C4.57458 14.6581 4.52119 14.6314 4.46779 14.6023C4.40746 14.57 4.34765 14.5369 4.28785 14.5028C4.23446 14.4731 4.18373 14.4427 4.13221 14.4117C4.07347 14.3765 4.0158 14.3402 3.95814 14.3031C3.90741 14.2708 3.85669 14.2379 3.80676 14.2043C3.7499 14.1658 3.69357 14.1258 3.63777 14.0857C3.58891 14.0508 3.54006 14.0158 3.492 13.979C3.43674 13.9373 3.38254 13.8943 3.32861 13.8511C3.28136 13.8134 3.23437 13.7761 3.18818 13.7373C3.13479 13.693 3.08326 13.6468 3.03147 13.6009C2.98609 13.5606 2.94043 13.5208 2.89611 13.4797C2.84512 13.4322 2.79573 13.3828 2.74608 13.3339C2.70309 13.2915 2.65931 13.2496 2.61713 13.2061C2.60938 13.1978 2.60191 13.1892 2.59417 13.1812C3.17634 12.8803 3.78978 12.6441 4.42347 12.477C4.75309 13.528 5.3395 14.4802 6.12971 15.2476C6.10808 15.242 6.08619 15.2375 6.06457 15.2316ZM7.72381 15.4639C6.58143 15.3015 5.58001 14.1092 4.94995 12.3485C5.86086 12.1446 6.79043 12.0352 7.72381 12.022V15.4639ZM7.72381 11.4881C6.73367 11.5011 5.7477 11.6187 4.78229 11.8389C4.44707 10.6807 4.27023 9.48235 4.25662 8.27666H7.72381V11.4881ZM7.72381 7.74271H4.25662C4.2702 6.53702 4.44703 5.33871 4.78229 4.18047C5.7477 4.40062 6.7337 4.51823 7.72381 4.53127V7.74271ZM7.72381 3.99733C6.7904 3.98431 5.86086 3.87489 4.94995 3.67082C5.58001 1.91012 6.58143 0.717815 7.72381 0.555494V3.99733ZM13.7459 3.24286C14.799 4.51212 15.4017 6.09454 15.4599 7.74271H12.2589C12.2467 6.49283 12.0654 5.25037 11.7199 4.04912C12.4246 3.86087 13.1046 3.59026 13.7459 3.24286ZM9.91487 0.787495C9.97093 0.801378 10.0267 0.818998 10.0823 0.835283C10.1498 0.855039 10.2176 0.874796 10.2844 0.89642C10.3407 0.914575 10.3962 0.934064 10.4518 0.953553C10.5174 0.976246 10.5831 0.999473 10.648 1.0243C10.7035 1.04539 10.7582 1.06755 10.8132 1.08998C10.877 1.11667 10.9409 1.14337 11.0041 1.17007C11.0586 1.1941 11.1128 1.21883 11.1667 1.24429C11.2289 1.27366 11.2909 1.30356 11.3536 1.33453C11.407 1.36122 11.4604 1.38792 11.5138 1.41702C11.5741 1.44932 11.6339 1.48243 11.6937 1.5166C11.7471 1.54624 11.7978 1.57667 11.8494 1.60764C11.9081 1.64288 11.9658 1.67919 12.0234 1.7163C12.0742 1.7486 12.1249 1.78144 12.1748 1.81508C12.2317 1.85352 12.2877 1.8933 12.3435 1.93335C12.3927 1.96832 12.4415 2.00356 12.4898 2.04014C12.5448 2.08152 12.5988 2.1245 12.653 2.16775C12.6999 2.20513 12.7472 2.2425 12.7934 2.28148C12.8468 2.3258 12.8983 2.37199 12.9501 2.41791C12.9955 2.45822 13.0411 2.498 13.0855 2.53911C13.1364 2.58663 13.1858 2.63602 13.2355 2.68488C13.2785 2.72733 13.3223 2.76924 13.3644 2.81276C13.3722 2.82104 13.3797 2.82958 13.3874 2.83759C12.8052 3.13854 12.1918 3.37471 11.5581 3.54187C11.2278 2.49072 10.6407 1.53853 9.84973 0.771477C9.87135 0.777083 9.89324 0.781622 9.91487 0.787495ZM8.25776 0.555494C9.40014 0.717815 10.4016 1.91012 11.0316 3.67082C10.1207 3.87478 9.19113 3.98421 8.25776 3.99733V0.555494ZM8.25776 4.53127C9.2479 4.51826 10.2339 4.40066 11.1993 4.18047C11.5345 5.33871 11.7113 6.53702 11.725 7.74271H8.25776V4.53127ZM8.25776 8.27666H11.725C11.7114 9.48235 11.5345 10.6807 11.1993 11.8389C10.2339 11.6187 9.2479 11.5011 8.25776 11.4881V8.27666ZM8.25776 15.4639V12.022C9.19117 12.0351 10.1207 12.1445 11.0316 12.3485C10.4016 14.1092 9.40014 15.3015 8.25776 15.4639ZM13.362 13.2063C13.3199 13.2499 13.2763 13.2918 13.2334 13.3342C13.1837 13.3831 13.134 13.4325 13.0831 13.48C13.0387 13.5214 12.9931 13.5601 12.9477 13.6015C12.8959 13.6474 12.8444 13.6933 12.7915 13.7376C12.7448 13.7766 12.6973 13.8142 12.6498 13.8521C12.5964 13.8949 12.543 13.9376 12.488 13.9787C12.4394 14.0153 12.39 14.0508 12.3403 14.0855C12.2851 14.125 12.2295 14.1656 12.1732 14.2024C12.1227 14.2366 12.0718 14.2697 12.0205 14.3023C11.9634 14.3391 11.9058 14.3747 11.8478 14.4091C11.7944 14.4403 11.7434 14.4707 11.6908 14.5009C11.6317 14.5345 11.5722 14.5674 11.5124 14.5994C11.459 14.6279 11.4057 14.6557 11.3523 14.683C11.2914 14.7137 11.23 14.7433 11.1683 14.7724C11.1149 14.7978 11.0594 14.8231 11.0044 14.8472C10.9417 14.8739 10.8781 14.9006 10.8146 14.9273C10.7593 14.9497 10.7043 14.9721 10.6488 14.9932C10.5836 15.018 10.5182 15.0412 10.4526 15.0639C10.397 15.0834 10.3415 15.1029 10.2852 15.1211C10.2184 15.1427 10.1517 15.1625 10.0836 15.1819C10.0278 15.1985 9.97173 15.215 9.9154 15.2303C9.89378 15.2359 9.87215 15.2404 9.85053 15.246C10.6408 14.4787 11.2272 13.5264 11.5568 12.4754C12.1904 12.6425 12.8039 12.8786 13.3861 13.1794C13.3773 13.189 13.3698 13.1983 13.362 13.2063ZM13.7459 12.7765C13.1046 12.429 12.4246 12.1584 11.7199 11.9702C12.0653 10.769 12.2467 9.52653 12.2589 8.27666H15.4599C15.4018 9.92482 14.799 11.5073 13.7459 12.7765Z" fill="#86A4BA"/>
<path d="M7.99075 0.000488281C7.70395 0.000488281 7.41736 0.015906 7.13219 0.0466415C6.87083 0.0733389 6.61266 0.117123 6.35797 0.170251C6.30868 0.180562 6.25936 0.191442 6.21007 0.202821C4.70944 0.544482 3.33919 1.31173 2.26365 2.41257C2.16364 2.51509 2.06572 2.62064 1.96998 2.7292C-0.935366 6.06464 -0.586698 11.1238 2.74878 14.0292C5.94206 16.8107 10.7488 16.6256 13.7187 13.6068C13.8189 13.5043 13.9168 13.3987 14.0124 13.2902C15.2946 11.83 16.0011 9.95289 16 8.00968C16 3.58629 12.4141 0.00045491 7.99075 0.000488281ZM2.61953 2.81303C2.66171 2.76924 2.7055 2.72733 2.74848 2.68488C2.79814 2.63602 2.84753 2.5869 2.89825 2.53965C2.94284 2.498 2.98875 2.45795 3.03441 2.41737C3.08593 2.37172 3.13719 2.32607 3.19005 2.28202C3.23651 2.24277 3.2843 2.20513 3.33182 2.16722C3.38521 2.1245 3.43861 2.08179 3.4936 2.04067C3.54219 2.0041 3.59158 1.96859 3.64124 1.93388C3.6965 1.89437 3.75203 1.85379 3.80837 1.81695C3.85882 1.78277 3.90982 1.74967 3.96108 1.71683C4.01821 1.68026 4.07561 1.64422 4.13354 1.61004C4.1857 1.57891 4.23819 1.54827 4.29106 1.5182C4.35016 1.48456 4.40949 1.45173 4.46913 1.41969C4.52252 1.39122 4.57592 1.36336 4.62931 1.33613C4.69018 1.30542 4.75159 1.27579 4.81326 1.24669C4.86665 1.22133 4.92218 1.19597 4.97718 1.17194C5.03992 1.14524 5.10346 1.11854 5.167 1.09185C5.22226 1.06915 5.27726 1.04699 5.33306 1.02564C5.39766 1.00107 5.46307 0.978115 5.52848 0.955155C5.58428 0.935666 5.64008 0.916177 5.69667 0.897755C5.76315 0.876397 5.83016 0.856641 5.89744 0.837152C5.95377 0.820867 6.00957 0.804047 6.06617 0.78883C6.08779 0.783223 6.10942 0.778685 6.13104 0.773078C5.3408 1.5404 4.75436 2.49269 4.42481 3.54374C3.79115 3.37661 3.17771 3.14054 2.5955 2.83973C2.60431 2.83038 2.61179 2.82104 2.61953 2.81303ZM2.23562 3.24286C2.87693 3.59032 3.55698 3.86097 4.26169 4.04912C3.91622 5.25037 3.73488 6.49283 3.72267 7.74271H0.521646C0.579813 6.09451 1.18254 4.51209 2.23562 3.24286ZM2.23562 12.7765C1.18261 11.5072 0.57988 9.92482 0.521646 8.27666H3.72267C3.73488 9.52653 3.91619 10.769 4.26169 11.9702C3.55701 12.1585 2.87696 12.4291 2.23562 12.7765ZM6.06457 15.2316C6.01064 15.218 5.95484 15.2004 5.89931 15.1841C5.83176 15.1643 5.76395 15.1446 5.69721 15.1229C5.64088 15.1048 5.58535 15.0853 5.52982 15.0658C5.46414 15.0431 5.39846 15.0199 5.33359 14.9951C5.27806 14.974 5.22333 14.9518 5.16833 14.9294C5.10453 14.9027 5.04072 14.876 4.97745 14.8493C4.92298 14.8253 4.86879 14.8005 4.81486 14.7751C4.75265 14.7457 4.69072 14.7158 4.62798 14.6848C4.57458 14.6581 4.52119 14.6314 4.46779 14.6023C4.40746 14.57 4.34765 14.5369 4.28785 14.5028C4.23446 14.4731 4.18373 14.4427 4.13221 14.4117C4.07347 14.3765 4.0158 14.3402 3.95814 14.3031C3.90741 14.2708 3.85669 14.2379 3.80676 14.2043C3.7499 14.1658 3.69357 14.1258 3.63777 14.0857C3.58891 14.0508 3.54006 14.0158 3.492 13.979C3.43674 13.9373 3.38254 13.8943 3.32861 13.8511C3.28136 13.8134 3.23437 13.7761 3.18818 13.7373C3.13479 13.693 3.08326 13.6468 3.03147 13.6009C2.98609 13.5606 2.94043 13.5208 2.89611 13.4797C2.84512 13.4322 2.79573 13.3828 2.74608 13.3339C2.70309 13.2915 2.65931 13.2496 2.61713 13.2061C2.60938 13.1978 2.60191 13.1892 2.59417 13.1812C3.17634 12.8803 3.78978 12.6441 4.42347 12.477C4.75309 13.528 5.3395 14.4802 6.12971 15.2476C6.10808 15.242 6.08619 15.2375 6.06457 15.2316ZM7.72381 15.4639C6.58143 15.3015 5.58001 14.1092 4.94995 12.3485C5.86086 12.1446 6.79043 12.0352 7.72381 12.022V15.4639ZM7.72381 11.4881C6.73367 11.5011 5.7477 11.6187 4.78229 11.8389C4.44707 10.6807 4.27023 9.48235 4.25662 8.27666H7.72381V11.4881ZM7.72381 7.74271H4.25662C4.2702 6.53702 4.44703 5.33871 4.78229 4.18047C5.7477 4.40062 6.7337 4.51823 7.72381 4.53127V7.74271ZM7.72381 3.99733C6.7904 3.98431 5.86086 3.87489 4.94995 3.67082C5.58001 1.91012 6.58143 0.717815 7.72381 0.555494V3.99733ZM13.7459 3.24286C14.799 4.51212 15.4017 6.09454 15.4599 7.74271H12.2589C12.2467 6.49283 12.0654 5.25037 11.7199 4.04912C12.4246 3.86087 13.1046 3.59026 13.7459 3.24286ZM9.91487 0.787495C9.97093 0.801378 10.0267 0.818998 10.0823 0.835283C10.1498 0.855039 10.2176 0.874796 10.2844 0.89642C10.3407 0.914575 10.3962 0.934064 10.4518 0.953553C10.5174 0.976246 10.5831 0.999473 10.648 1.0243C10.7035 1.04539 10.7582 1.06755 10.8132 1.08998C10.877 1.11667 10.9409 1.14337 11.0041 1.17007C11.0586 1.1941 11.1128 1.21883 11.1667 1.24429C11.2289 1.27366 11.2909 1.30356 11.3536 1.33453C11.407 1.36122 11.4604 1.38792 11.5138 1.41702C11.5741 1.44932 11.6339 1.48243 11.6937 1.5166C11.7471 1.54624 11.7978 1.57667 11.8494 1.60764C11.9081 1.64288 11.9658 1.67919 12.0234 1.7163C12.0742 1.7486 12.1249 1.78144 12.1748 1.81508C12.2317 1.85352 12.2877 1.8933 12.3435 1.93335C12.3927 1.96832 12.4415 2.00356 12.4898 2.04014C12.5448 2.08152 12.5988 2.1245 12.653 2.16775C12.6999 2.20513 12.7472 2.2425 12.7934 2.28148C12.8468 2.3258 12.8983 2.37199 12.9501 2.41791C12.9955 2.45822 13.0411 2.498 13.0855 2.53911C13.1364 2.58663 13.1858 2.63602 13.2355 2.68488C13.2785 2.72733 13.3223 2.76924 13.3644 2.81276C13.3722 2.82104 13.3797 2.82958 13.3874 2.83759C12.8052 3.13854 12.1918 3.37471 11.5581 3.54187C11.2278 2.49072 10.6407 1.53853 9.84973 0.771477C9.87135 0.777083 9.89324 0.781622 9.91487 0.787495ZM8.25776 0.555494C9.40014 0.717815 10.4016 1.91012 11.0316 3.67082C10.1207 3.87478 9.19113 3.98421 8.25776 3.99733V0.555494ZM8.25776 4.53127C9.2479 4.51826 10.2339 4.40066 11.1993 4.18047C11.5345 5.33871 11.7113 6.53702 11.725 7.74271H8.25776V4.53127ZM8.25776 8.27666H11.725C11.7114 9.48235 11.5345 10.6807 11.1993 11.8389C10.2339 11.6187 9.2479 11.5011 8.25776 11.4881V8.27666ZM8.25776 15.4639V12.022C9.19117 12.0351 10.1207 12.1445 11.0316 12.3485C10.4016 14.1092 9.40014 15.3015 8.25776 15.4639ZM13.362 13.2063C13.3199 13.2499 13.2763 13.2918 13.2334 13.3342C13.1837 13.3831 13.134 13.4325 13.0831 13.48C13.0387 13.5214 12.9931 13.5601 12.9477 13.6015C12.8959 13.6474 12.8444 13.6933 12.7915 13.7376C12.7448 13.7766 12.6973 13.8142 12.6498 13.8521C12.5964 13.8949 12.543 13.9376 12.488 13.9787C12.4394 14.0153 12.39 14.0508 12.3403 14.0855C12.2851 14.125 12.2295 14.1656 12.1732 14.2024C12.1227 14.2366 12.0718 14.2697 12.0205 14.3023C11.9634 14.3391 11.9058 14.3747 11.8478 14.4091C11.7944 14.4403 11.7434 14.4707 11.6908 14.5009C11.6317 14.5345 11.5722 14.5674 11.5124 14.5994C11.459 14.6279 11.4057 14.6557 11.3523 14.683C11.2914 14.7137 11.23 14.7433 11.1683 14.7724C11.1149 14.7978 11.0594 14.8231 11.0044 14.8472C10.9417 14.8739 10.8781 14.9006 10.8146 14.9273C10.7593 14.9497 10.7043 14.9721 10.6488 14.9932C10.5836 15.018 10.5182 15.0412 10.4526 15.0639C10.397 15.0834 10.3415 15.1029 10.2852 15.1211C10.2184 15.1427 10.1517 15.1625 10.0836 15.1819C10.0278 15.1985 9.97173 15.215 9.9154 15.2303C9.89378 15.2359 9.87215 15.2404 9.85053 15.246C10.6408 14.4787 11.2272 13.5264 11.5568 12.4754C12.1904 12.6425 12.8039 12.8786 13.3861 13.1794C13.3773 13.189 13.3698 13.1983 13.362 13.2063ZM13.7459 12.7765C13.1046 12.429 12.4246 12.1584 11.7199 11.9702C12.0653 10.769 12.2467 9.52653 12.2589 8.27666H15.4599C15.4018 9.92482 14.799 11.5073 13.7459 12.7765Z" stroke="#86A4BA" stroke-width="0.4" mask="url(#path-1-outside-1)"/>
</svg>
