<svg width="133" height="20" viewBox="0 0 133 20" fill="none" xmlns="http://www.w3.org/2000/svg">
<path d="M3.93853 9.99974C3.93853 13.0747 6.25242 15.6246 9.1817 15.9746V19.9995C4.06161 19.6495 0 15.2996 0 9.99974C0 4.49988 4.43085 0 9.84632 0H18.7819L10.511 8.39978V3.9999H9.84632C6.59704 3.9999 3.93853 6.69983 3.93853 9.99974Z" fill="url(#paint0_linear)"/>
<path d="M13.5395 14.7002L16.3457 17.5501C14.7703 18.9501 12.7271 19.8501 10.5117 20.0001V15.9752C11.644 15.8502 12.7025 15.4002 13.5395 14.7002Z" fill="url(#paint1_linear)"/>
<path d="M19.6932 10.6748C19.5455 12.9247 18.6593 14.9997 17.2808 16.5997L14.4746 13.7497C15.1639 12.8747 15.6069 11.8248 15.73 10.6748H19.6932Z" fill="url(#paint2_linear)"/>
<path d="M15.5823 8.54967C15.6562 8.79966 15.7054 9.07466 15.73 9.34965H19.6932C19.6439 8.74967 19.5701 8.17468 19.4224 7.5997C19.2008 6.64972 18.807 5.72474 18.3147 4.87477C18.0193 4.37478 17.6747 3.87479 17.2808 3.4248L14.4746 6.27473C14.6469 6.47472 14.7946 6.69972 14.9177 6.92471C15.2377 7.4247 15.4592 7.97469 15.5823 8.54967Z" fill="url(#paint3_linear)"/>
<path d="M44.5939 4.84729L45.9795 5.44608L42.943 12.4219L39.7297 5.44608L41.0563 4.84729L36.0742 3.58984L41.7933 16.0146H44.1222L49.576 3.58984L44.5939 4.84729Z" fill="#00A6D7"/>
<path d="M33.6279 4.18958C32.7435 3.74049 31.8002 3.50098 30.8273 3.50098C27.4371 3.50098 24.666 6.31527 24.666 9.75828C24.666 9.99779 24.666 10.2373 24.6955 10.4469C24.8134 11.4049 25.1377 12.363 25.6683 13.1714C26.8181 14.9378 28.7342 15.9856 30.8273 15.9856C33.9227 15.9856 36.5169 13.6803 36.9297 10.5666H34.3649C33.9817 12.2133 32.5372 13.4109 30.8568 13.4109C30.0608 13.4109 29.2944 13.1414 28.6753 12.6624L28.4984 12.5127L28.7048 12.4229C30.7978 11.6744 32.6551 10.3571 34.0996 8.62059C34.7776 7.81223 35.3378 6.91405 35.78 5.98593C35.2198 5.26739 34.4828 4.63867 33.6279 4.18958ZM32.4192 6.6446C31.1516 8.32119 29.3828 9.57864 27.3782 10.1774L27.2308 10.2074V10.0577C27.2308 9.96785 27.2308 9.8481 27.2308 9.75828C27.2308 7.72241 28.8522 6.07575 30.8568 6.07575C31.3874 6.07575 31.9181 6.19551 32.3898 6.43502L32.5372 6.4949L32.4192 6.6446Z" fill="#00A6D7"/>
<path d="M57.6533 4.18958C56.7984 3.74049 55.8256 3.50098 54.8527 3.50098C51.4625 3.50098 48.6914 6.31527 48.6914 9.75828C48.6914 9.99779 48.6914 10.2373 48.7209 10.4469C48.8388 11.4049 49.1631 12.363 49.6937 13.1714C50.8434 14.9378 52.7596 15.9856 54.8527 15.9856C57.9481 15.9856 60.5423 13.6803 60.9551 10.5666H58.3903C58.0071 12.2133 56.5626 13.4109 54.8822 13.4109C54.0862 13.4109 53.3198 13.1414 52.7007 12.6624L52.5238 12.5127L52.7302 12.4229C54.8232 11.6744 56.6805 10.3571 58.125 8.62059C58.803 7.81223 59.3632 6.91405 59.8054 5.98593C59.2158 5.26739 58.4788 4.63867 57.6533 4.18958ZM56.4446 6.6446C55.177 8.32119 53.4082 9.57864 51.4036 10.1774L51.2562 10.2074V10.0577C51.2562 9.96785 51.2562 9.8481 51.2562 9.75828C51.2562 7.72241 52.8776 6.07575 54.8822 6.07575C55.4128 6.07575 55.9435 6.19551 56.4152 6.43502L56.5626 6.4949L56.4446 6.6446Z" fill="#00A6D7"/>
<path d="M129.349 4.19153C128.494 3.74244 127.521 3.50293 126.548 3.50293C123.158 3.50293 120.387 6.31722 120.387 9.76023C120.387 9.99975 120.387 10.2393 120.416 10.4488C120.534 11.4069 120.858 12.3649 121.389 13.1733C122.539 14.9397 124.455 15.9876 126.548 15.9876C129.643 15.9876 132.238 13.6823 132.65 10.5686H130.086C129.702 12.2152 128.258 13.4128 126.578 13.4128C125.782 13.4128 125.015 13.1434 124.396 12.6643L124.219 12.5146L124.425 12.4248C126.519 11.6763 128.376 10.359 129.82 8.62254C130.498 7.81418 131.058 6.916 131.501 5.98789C130.911 5.26935 130.174 4.64062 129.349 4.19153ZM128.14 6.64655C126.872 8.32315 125.104 9.5806 123.099 10.1794L122.951 10.2093V10.0596C122.951 9.96981 122.951 9.85005 122.951 9.76023C122.951 7.72436 124.573 6.0777 126.578 6.0777C127.108 6.0777 127.639 6.19746 128.11 6.43698L128.258 6.49685L128.14 6.64655Z" fill="#2A317D"/>
<path d="M66.1435 6.46725C66.6742 6.13792 67.2933 5.95828 68.0303 5.95828C68.7083 5.95828 69.2979 6.13792 69.7696 6.46725C70.2412 6.82652 70.595 7.27561 70.8308 7.84445L70.9488 8.14385H73.6609L73.484 7.54506C73.1303 6.34749 72.4522 5.38944 71.4499 4.64096C70.4476 3.89247 69.2389 3.5332 67.8239 3.5332C66.6447 3.5332 65.5834 3.80266 64.699 4.3715C63.8146 4.94035 63.1366 5.68883 62.6354 6.64688C62.1638 7.575 61.8984 8.65281 61.8984 9.79051C61.8984 10.9282 62.1343 11.9761 62.6354 12.9341C63.1071 13.8922 63.8146 14.6407 64.699 15.2095C65.5834 15.7784 66.6152 16.0478 67.8239 16.0478C69.2389 16.0478 70.4476 15.6586 71.4499 14.9401C72.4522 14.1916 73.1303 13.2036 73.484 12.0359L73.6609 11.4372H70.9488L70.8308 11.7366C70.595 12.3054 70.2707 12.7545 69.7696 13.1138C69.2979 13.473 68.7083 13.6227 68.0303 13.6227C67.2933 13.6227 66.6742 13.4431 66.1435 13.1138C65.6129 12.7545 65.2002 12.3054 64.9054 11.7366C64.6106 11.1378 64.4632 10.509 64.4632 9.82045C64.4632 9.13184 64.6106 8.47318 64.9054 7.90433C65.2002 7.27561 65.6129 6.82652 66.1435 6.46725Z" fill="#2A317D"/>
<path d="M83.2419 4.13162C82.5049 3.74241 81.709 3.53283 80.8835 3.53283C79.9107 3.53283 79.0853 3.74241 78.4367 4.16155C78.1714 4.34119 77.9061 4.55077 77.6702 4.76034V0H75.1055V15.8678H77.6702V8.9219C77.6702 8.32311 77.7881 7.81414 78.0535 7.36505C78.3188 6.91597 78.6431 6.58663 79.0853 6.31718C79.5275 6.07767 79.9991 5.95791 80.5593 5.95791C81.3552 5.95791 81.9743 6.22736 82.4754 6.73633C82.9766 7.27524 83.2124 7.96384 83.2124 8.89195V15.8379H85.7772V8.86202C85.7772 7.72432 85.5414 6.73633 85.0992 5.95791C84.5685 5.14955 83.9789 4.52083 83.2419 4.13162Z" fill="#2A317D"/>
<path d="M96.2414 4.79065C95.9466 4.55114 95.6518 4.31162 95.2981 4.13199C94.5905 3.74278 93.7061 3.5332 92.7333 3.5332C91.5836 3.5332 90.5518 3.8326 89.6674 4.3715C88.8125 4.94035 88.105 5.68883 87.6333 6.64688C87.1616 7.575 86.9258 8.65281 86.9258 9.7905C86.9258 10.9282 87.1616 11.9761 87.6333 12.9042C88.105 13.8622 88.783 14.6107 89.6674 15.1796C90.5518 15.7484 91.5836 16.0179 92.7333 16.0179C93.7061 16.0179 94.5905 15.8083 95.2981 15.4191C95.6518 15.2394 95.9466 14.9999 96.2414 14.7604V15.8382H98.8062V3.71284H96.2414V4.79065ZM95.9171 7.84445C96.1825 8.4133 96.3299 9.07196 96.3299 9.7905C96.3299 10.4791 96.1825 11.1378 95.9171 11.7366C95.6518 12.3054 95.2686 12.7545 94.7674 13.1138C94.2663 13.4431 93.6472 13.6227 92.9397 13.6227C92.2322 13.6227 91.5836 13.4431 91.0824 13.1138C90.5518 12.7545 90.1686 12.3054 89.9032 11.7366C89.6379 11.1378 89.4905 10.509 89.4905 9.82044C89.4905 9.1019 89.6379 8.47318 89.9032 7.87439C90.1686 7.30555 90.5813 6.85646 91.0824 6.49719C91.5836 6.16786 92.2322 5.98822 92.9397 5.98822C93.6767 5.98822 94.2957 6.16786 94.7674 6.49719C95.2686 6.82652 95.6518 7.24567 95.9171 7.84445Z" fill="#2A317D"/>
<path d="M107.061 3.5332H106.501C105.764 3.5332 105.116 3.65296 104.556 3.92241C104.025 4.16193 103.553 4.49126 103.2 4.85053C103.082 4.97029 102.993 5.09004 102.875 5.2098V3.71284H100.311V15.8682H102.875V10.4791C102.875 9.73063 103.023 9.01208 103.317 8.35342C103.612 7.69476 104.025 7.15585 104.556 6.76664C105.086 6.37743 105.676 6.16786 106.413 6.16786H107.061V3.5332Z" fill="#2A317D"/>
<path d="M116.732 3.71284V4.76071C116.437 4.5212 116.142 4.28168 115.788 4.10205C115.081 3.71284 114.196 3.5332 113.224 3.5332C112.074 3.5332 111.042 3.80266 110.158 4.34156C109.273 4.88047 108.595 5.62895 108.124 6.55707C107.652 7.48518 107.416 8.53306 107.416 9.67075C107.416 10.8084 107.652 11.8563 108.124 12.7844C108.595 13.7125 109.273 14.461 110.158 15.0299C111.042 15.5688 112.044 15.8382 113.224 15.8382C114.196 15.8382 115.081 15.6287 115.788 15.2394C116.142 15.0598 116.437 14.8203 116.732 14.5808V14.9401C116.732 15.958 116.231 17.5747 113.518 17.5747C112.752 17.5747 112.133 17.425 111.661 17.1556C111.307 16.946 111.042 16.7065 110.865 16.4071H108.035C108.389 17.4849 109.037 18.3531 109.981 19.0118C110.924 19.6705 112.133 19.9998 113.607 19.9998C115.376 19.9998 116.791 19.5208 117.763 18.5926C117.763 18.5926 119.267 17.3053 119.267 15.0299V3.71284H116.732ZM116.407 11.5869C116.142 12.1557 115.759 12.5749 115.258 12.9042C114.757 13.2335 114.167 13.3832 113.43 13.3832C112.693 13.3832 112.074 13.2036 111.573 12.9042C111.042 12.5749 110.659 12.1258 110.393 11.5869C110.128 11.018 109.981 10.3893 109.981 9.70069C109.981 9.01208 110.128 8.35342 110.393 7.78457C110.659 7.21573 111.042 6.79658 111.573 6.46725C112.074 6.13792 112.722 5.98822 113.43 5.98822C114.137 5.98822 114.757 6.13792 115.258 6.46725C115.759 6.79658 116.142 7.24567 116.407 7.78457C116.673 8.35342 116.82 8.98214 116.82 9.70069C116.82 10.3594 116.702 11.018 116.407 11.5869Z" fill="#2A317D"/>
<defs>
<linearGradient id="paint0_linear" x1="9.39165" y1="16.2792" x2="9.39165" y2="3.98617" gradientUnits="userSpaceOnUse">
<stop stop-color="#0598CF"/>
<stop offset="1" stop-color="#2A327D"/>
</linearGradient>
<linearGradient id="paint1_linear" x1="14.8924" y1="16.293" x2="10.6329" y2="18.2438" gradientUnits="userSpaceOnUse">
<stop stop-color="#2AACD7"/>
<stop offset="1" stop-color="#029DD1"/>
</linearGradient>
<linearGradient id="paint2_linear" x1="17.8555" y1="10.6762" x2="16.1344" y2="15.2867" gradientUnits="userSpaceOnUse">
<stop stop-color="#4CB9D7"/>
<stop offset="1" stop-color="#30AED7"/>
</linearGradient>
<linearGradient id="paint3_linear" x1="16.1091" y1="4.5963" x2="17.9056" y2="9.20537" gradientUnits="userSpaceOnUse">
<stop stop-color="#63C8D8"/>
<stop offset="1" stop-color="#50BBD7"/>
</linearGradient>
</defs>
</svg>
