<svg width="16" height="16" viewBox="0 0 16 16" fill="none" xmlns="http://www.w3.org/2000/svg">
<path d="M13.4 6.66699C13.4 8.75916 12.0406 10.7795 10.5644 12.3377C9.83863 13.1038 9.1108 13.7308 8.56374 14.1664C8.34079 14.3439 8.14867 14.489 8 14.5982C7.85134 14.489 7.65921 14.3439 7.43626 14.1664C6.8892 13.7308 6.16137 13.1038 5.43557 12.3377C3.95944 10.7795 2.6 8.75916 2.6 6.66699C2.6 5.23482 3.16893 3.86131 4.18162 2.84862C5.19432 1.83592 6.56783 1.26699 8 1.26699C9.43217 1.26699 10.8057 1.83592 11.8184 2.84862C12.8311 3.86131 13.4 5.23482 13.4 6.66699Z" stroke="#86A4BA" stroke-width="1.2" stroke-linecap="round" stroke-linejoin="round"/>
<path d="M9.4 6.66699C9.4 7.44019 8.7732 8.06699 8 8.06699C7.2268 8.06699 6.6 7.44019 6.6 6.66699C6.6 5.89379 7.2268 5.26699 8 5.26699C8.7732 5.26699 9.4 5.89379 9.4 6.66699Z" stroke="#86A4BA" stroke-width="1.2" stroke-linecap="round" stroke-linejoin="round"/>
</svg>
