<svg width="24" height="24" viewBox="0 0 24 24" fill="none" xmlns="http://www.w3.org/2000/svg">
<path d="M22 12.9792H2.00003C1.49821 12.9792 1.09094 12.5312 1.09094 11.9792C1.09094 11.4272 1.49821 10.9792 2.00003 10.9792H22C22.5019 10.9792 22.9091 11.4272 22.9091 11.9792C22.9091 12.5312 22.5019 12.9792 22 12.9792Z" fill="#00A6D7" stroke="#00A6D7"/>
<path d="M22 5.3125H2.00003C1.49821 5.3125 1.09094 4.8645 1.09094 4.3125C1.09094 3.7605 1.49821 3.3125 2.00003 3.3125H22C22.5019 3.3125 22.9091 3.7605 22.9091 4.3125C22.9091 4.8645 22.5019 5.3125 22 5.3125Z" fill="#00A6D7" stroke="#00A6D7"/>
<path d="M22 20.6458H2.00003C1.49821 20.6458 1.09094 20.1978 1.09094 19.6458C1.09094 19.0938 1.49821 18.6458 2.00003 18.6458H22C22.5019 18.6458 22.9091 19.0938 22.9091 19.6458C22.9091 20.1978 22.5019 20.6458 22 20.6458Z" fill="#00A6D7" stroke="#00A6D7"/>
</svg>
